<svg width="168" height="55" viewBox="0 0 168 55" fill="none" xmlns="http://www.w3.org/2000/svg">
<path d="M9.9149 7.10643L21.1276 29.7235L16.2979 39.0426L0 7.12773L9.9149 7.10643ZM30.4043 10.3617C30.4043 14.5107 25.2341 21.3405 25.2341 21.3405C24.5588 15.8736 21.9561 10.8266 17.8936 7.10643H26.9362C27.3721 7.09797 27.8054 7.17547 28.2113 7.3345C28.6172 7.49353 28.9879 7.73099 29.3021 8.03329C29.6162 8.33559 29.8677 8.69681 30.0422 9.09634C30.2167 9.49587 30.3108 9.92585 30.3191 10.3617H30.4043Z" fill="#0F1428"/>
<path d="M45.2128 38.3618C36.4468 38.3618 32.1277 37.2128 32.1277 31.9788C32.1277 26.7448 36.383 25.4469 45.2128 25.4469C43.9363 25.9808 42.8542 26.8932 42.1123 28.0612C41.3705 29.2291 41.0046 30.5964 41.0639 31.9788C41.0263 33.338 41.403 34.6765 42.1441 35.8165C42.8851 36.9566 43.9554 37.8443 45.2128 38.3618ZM35.7021 19.0852C35.7063 18.3539 35.927 17.6402 36.3364 17.0342C36.7457 16.4282 37.3253 15.957 38.0022 15.6801C38.679 15.4031 39.4227 15.3328 40.1394 15.4781C40.8562 15.6233 41.5139 15.9776 42.0295 16.4962C42.5451 17.0147 42.8956 17.6745 43.0367 18.392C43.1779 19.1096 43.1033 19.8528 42.8225 20.5281C42.5417 21.2033 42.0672 21.7803 41.4588 22.1861C40.8505 22.592 40.1355 22.8086 39.4042 22.8086C38.9155 22.8114 38.431 22.7169 37.9792 22.5306C37.5273 22.3442 37.1171 22.0697 36.7725 21.7231C36.4279 21.3765 36.1558 20.9647 35.972 20.5118C35.7882 20.0589 35.6965 19.5739 35.7021 19.0852ZM58.0638 25.2129V38.4256H49.1915V20.149C49.1915 15.0426 47.0638 13.4469 47.0638 13.4469C54.9574 13.4469 58.0638 16.4256 58.0638 25.149V25.2129Z" fill="#0F1428"/>
<path d="M65.2341 17.383L74.1277 13.4469V38.3618H65.2341V17.383ZM91.6383 22.4256V38.3618H82.7447V21.7873C82.7447 18.5745 81.5319 17.0639 79.9149 16.6596C79.0045 16.4532 78.0594 16.4532 77.149 16.6596C79.2107 14.6701 81.9254 13.498 84.7873 13.3618C90.1064 13.4469 91.6383 17.149 91.6383 22.4256Z" fill="#0F1428"/>
<path d="M97 24.1703C97.0678 22.045 97.771 19.9888 99.0187 18.267C100.266 16.5452 102.001 15.2368 104 14.5107C103.553 16.2554 104.511 21.0852 106.915 25.6384C108.529 29.0792 111.043 32.0198 114.192 34.149C112.754 34.5636 111.262 34.7643 109.766 34.7447C102.404 34.8511 97 30.0639 97 24.1703ZM123.66 46.149C123.899 47.818 123.681 49.5207 123.029 51.0757C122.377 52.6306 121.316 53.9796 119.957 54.9788C119.957 54.9788 122.915 48.1064 114.106 48.1064H105.979C101.149 48.1064 98.1064 45.9788 98.1064 42.532C98.1064 38.0639 103.17 36.0426 103.17 36.0426C103.17 36.0426 101.191 39.9788 105.702 39.9788H114.83C118.936 39.9788 123.085 41.8511 123.66 46.149ZM105.404 14.0639C106.82 13.6447 108.29 13.4368 109.766 13.4469C117.191 13.4469 122.532 18.2128 122.532 24.0852C122.453 26.1969 121.747 28.2373 120.505 29.9463C119.262 31.6553 117.538 32.9554 115.553 33.6809C116 31.9362 115.064 27.1064 112.617 22.5533C111.02 19.1263 108.528 16.1935 105.404 14.0639ZM117.319 9.80856C115.135 9.94531 113.093 10.9395 111.638 12.5745C111.638 12.5745 113.085 5.82985 118.021 4.40432C120.915 3.59581 124 7.12771 121.809 11.9362C121.249 11.2879 120.561 10.7624 119.788 10.3925C119.016 10.0227 118.175 9.81668 117.319 9.78729V9.80856Z" fill="#0F1428"/>
<path d="M137.915 5.27663C137.915 6.32115 137.605 7.34219 137.024 8.21038C136.443 9.07856 135.618 9.75486 134.653 10.1536C133.687 10.5523 132.625 10.6556 131.601 10.4502C130.577 10.2449 129.637 9.74024 128.9 9.00016C128.163 8.26009 127.662 7.31792 127.46 6.29296C127.259 5.26801 127.367 4.20639 127.769 3.2426C128.172 2.27881 128.852 1.45618 129.722 0.87895C130.593 0.301717 131.615 -0.00416781 132.66 4.39532e-05C133.352 -0.00279498 134.039 0.131918 134.679 0.39635C135.319 0.660783 135.901 1.04967 136.39 1.5405C136.878 2.03133 137.265 2.61431 137.527 3.25565C137.789 3.89699 137.921 4.58392 137.915 5.27663ZM128.191 17.383L137.064 13.4469V38.3617H128.191V17.383Z" fill="#0F1428"/>
<path d="M155.043 38.3618C146.277 38.3618 141.936 37.2128 141.936 31.9788C141.936 26.7448 146.191 25.4469 155.043 25.4469C153.746 25.9638 152.641 26.869 151.88 28.0384C151.118 29.2078 150.736 30.5841 150.787 31.9788C150.758 33.3504 151.15 34.6979 151.911 35.8393C152.672 36.9808 153.765 37.8612 155.043 38.3618ZM145.511 19.0852C145.511 18.3488 145.729 17.6289 146.138 17.0166C146.547 16.4043 147.129 15.927 147.809 15.6452C148.49 15.3634 149.238 15.2897 149.96 15.4333C150.683 15.577 151.346 15.9316 151.867 16.4523C152.388 16.9731 152.742 17.6365 152.886 18.3588C153.03 19.081 152.956 19.8297 152.674 20.5101C152.392 21.1904 151.915 21.772 151.303 22.1811C150.69 22.5902 149.97 22.8086 149.234 22.8086C148.744 22.8114 148.259 22.717 147.806 22.5309C147.353 22.3448 146.941 22.0707 146.595 21.7243C146.249 21.378 145.974 20.9664 145.788 20.5134C145.602 20.0604 145.508 19.5749 145.511 19.0852ZM167.894 25.2129V38.4256H159V20.149C159 15.0426 156.872 13.4469 156.872 13.4469C164.766 13.4469 167.894 16.4256 167.894 25.149V25.2129Z" fill="#0F1428"/>
</svg>
